# xmcd CD database file
#
# Track frame offsets:
#	150
#	6307
#	37627
#	46031
#	74705
#	114282
#	144806
#	178234
#
# Disc length: 3284 seconds
#
# Revision: 0
# Processed by: cddbd v1.5.2PL0 Copyright (c) Steve Scherf et al.
# Submitted via: CDex 1.51
#
DISCID=600cd208
DTITLE=Forsaken - Pentateuch
DYEAR=2017
DGENRE=Doom Metal
TTITLE0=Phaneros (Coming to Light)
TTITLE1=Serpent Bride
TTITLE2=The Banishment
TTITLE3=Primal Wound
TTITLE4=The Dove and the Raven
TTITLE5=Decalogue
TTITLE6=Sabaoth (The Lawgiver)
TTITLE7=Apocryphal Winds
EXTD=YEAR: 2017
EXTT0=
EXTT1=
EXTT2=
EXTT3=
EXTT4=
EXTT5=
EXTT6=
EXTT7=
PLAYORDER=
